<?xml version="1.0" encoding="UTF-8"?>
<svg id="Laag_1" xmlns="http://www.w3.org/2000/svg" version="1.1" viewBox="0 0 1080 1080">
  <!-- Generator: Adobe Illustrator 30.2.1, SVG Export Plug-In . SVG Version: 2.1.1 Build 1)  -->
  <defs>
    <style>
      .st0 {
        fill: #fff;
      }
    </style>
  </defs>
  <path class="st0" d="M370.86,476.8c-2.77-3.88-5.27-6.66-8.05-8.6,1.94,143.18,0,150.39,16.09,151.78l37.46,3.05-.28,1.94h-89.9v-1.94l18.04-2.77c15.82-2.5,13.87-9.99,16.09-154-3.88-2.22-8.6-3.33-15.54-4.16l-18.59-1.94v-1.67h48c24.69,40.79,60.77,94.06,101.55,145.4-1.94-132.35-.56-138.74-14.71-140.12l-37.46-3.61.28-1.67h80.19v1.67l-10.27,1.94c-14.71,3.33-15.54,15.82-15.54,141.51,0,9.99,0,16.92.56,23.86l-1.94.28c-24.97-38.01-75.47-109.6-105.99-150.94Z"/>
  <path class="st0" d="M529.26,705.43c-35.24,0-58.55-27.19-58.55-70.2,0-34.41,22.75-63.26,69.09-63.26,34.96,0,57.99,21.09,57.99,57.71,0,43.56-28.86,75.75-68.54,75.75ZM538.69,698.5c33.85,0,49.39-22.48,49.39-63.26s-20.81-59.93-54.66-59.93-53.83,18.59-53.83,54.38c0,42.18,21.64,68.81,59.1,68.81Z"/>
  <path class="st0" d="M605.43,488.46l-10.27,4.16-96.56-.83c-.28,2.22-.28,4.44-.28,6.66,0,43.29,23.03,65.76,56.88,65.76,25.8,0,40.79-11.38,50.22-40.79l1.67.56c-8.88,37.74-28.86,49.11-56.88,49.11-38.29,0-61.6-27.19-61.6-70.2,0-35.52,23.59-63.26,67.15-63.26,29.69,0,51.05,16.92,49.67,48.83ZM498.89,490.13l87.4-2.22c6.38-.28,7.49-4.44,7.49-9.16,0-21.64-18.04-36.35-43.56-36.35-29.97,0-48.28,19.7-51.33,47.73Z"/>
  <path class="st0" d="M594.38,389.06l-13.87-1.11v-1.66c23.03-3.33,28.02-5.55,32.46-11.65l1.39.28v92.95c0,87.96,0,88.79,7.77,90.46l18.31,3.05v1.94h-60.21v-1.94l12.21-1.11c13.04-1.39,13.6-1.94,13.6-55.22,0-113.76-.83-114.87-11.65-115.98Z"/>
  <path class="st0" d="M641.84,389l-13.87-1.11v-1.66c23.03-3.33,28.02-5.55,32.46-11.65l1.39.28v92.95c0,87.96,0,88.79,7.77,90.46l18.31,3.05v1.94h-60.21v-1.94l12.21-1.11c13.04-1.39,13.6-1.94,13.6-55.22,0-113.76-.83-114.87-11.65-115.98Z"/>
  <path class="st0" d="M752.15,589.97l-10.27,4.16-96.56-.83c-.28,2.22-.28,4.44-.28,6.66,0,43.29,23.03,65.76,56.88,65.76,25.8,0,40.79-11.38,50.22-40.79l1.67.56c-8.88,37.74-28.86,49.11-56.88,49.11-38.29,0-61.6-27.19-61.6-70.2,0-35.52,23.59-63.26,67.15-63.26,29.69,0,51.05,16.92,49.67,48.83ZM645.6,591.64l87.4-2.22c6.38-.28,7.49-4.44,7.49-9.16,0-21.64-18.04-36.35-43.56-36.35-29.97,0-48.28,19.7-51.33,47.73Z"/>
  <path class="st0" d="M594.63,565.98h-14.43v-1.94c15.26-3.88,24.42-7.49,32.74-11.93l1.67.56c-.28,11.65-.83,26.64-1.11,40.79l.83.28c5-22.75,25.81-43.29,49.11-43.29.28,3.61.56,8.32.56,11.93h-4.99c-20.53,0-44.67,13.32-44.67,43.84,0,66.32,1.11,69.37,7.49,69.92l28.86,3.05v1.94h-70.48v-1.94l15.54-1.94c9.71-1.39,9.99-3.33,9.99-55.49s-.83-55.49-11.1-55.77Z"/>
</svg>