<?xml version="1.0" encoding="UTF-8"?>
<svg id="Laag_1" xmlns="http://www.w3.org/2000/svg" version="1.1" viewBox="0 0 1080 1080">
  <!-- Generator: Adobe Illustrator 30.2.1, SVG Export Plug-In . SVG Version: 2.1.1 Build 1)  -->
  <defs>
    <style>
      .st0 {
        fill: #2e1a19;
      }

      .st1 {
        fill: #eeefc9;
      }
    </style>
  </defs>
  <rect class="st0" width="1080" height="1080"/>
  <g>
    <g>
      <path class="st1" d="M372.21,621.77h-3.57v-1.38h3.57l-.44.44v-4.15c0-.8.13-1.51.38-2.13.26-.62.6-1.15,1.04-1.58s.96-.77,1.57-1c.61-.23,1.26-.35,1.97-.35.48,0,.9.04,1.24.11.34.07.64.18.91.33v1.46c-.27-.12-.57-.23-.91-.33-.34-.1-.72-.15-1.13-.15-1.02,0-1.86.31-2.53.93-.67.62-1,1.52-1,2.71v4.15l-.44-.44h5.42v1.38h-5.42l.44-.44v17.26h-1.53v-17.26l.44.44Z"/>
      <path class="st1" d="M392.91,620.7c1.13.5,2.11,1.18,2.93,2.04.83.86,1.47,1.87,1.93,3.02.46,1.15.69,2.38.69,3.7s-.23,2.59-.69,3.75c-.46,1.17-1.1,2.18-1.93,3.04s-1.8,1.54-2.93,2.04-2.35.75-3.66.75-2.53-.25-3.66-.75-2.11-1.18-2.93-2.04c-.83-.86-1.47-1.87-1.93-3.04-.46-1.17-.69-2.42-.69-3.75s.23-2.54.69-3.7c.46-1.15,1.1-2.16,1.93-3.02.83-.86,1.8-1.54,2.93-2.04,1.13-.5,2.35-.75,3.66-.75s2.53.25,3.66.75ZM386.19,622.08c-.92.43-1.72,1.01-2.4,1.75-.68.74-1.2,1.6-1.57,2.57-.36.97-.55,2-.55,3.09s.18,2.12.55,3.09c.36.97.89,1.83,1.57,2.57.68.74,1.48,1.32,2.4,1.75.92.43,1.94.64,3.06.64s2.14-.21,3.06-.64c.92-.42,1.72-1.01,2.4-1.75.68-.74,1.2-1.6,1.57-2.57.36-.97.55-2,.55-3.09s-.18-2.12-.55-3.09c-.36-.97-.89-1.83-1.57-2.57s-1.48-1.32-2.4-1.75c-.92-.42-1.94-.64-3.06-.64s-2.14.21-3.06.64Z"/>
      <path class="st1" d="M405.16,624.86l-.15.07c.22-.85.53-1.59.95-2.22.41-.63.88-1.15,1.4-1.57.52-.41,1.1-.72,1.73-.91.63-.19,1.27-.29,1.93-.29h.45c.16,0,.31.03.45.07v1.53c-.15-.02-.29-.04-.42-.04h-.38c-1.82,0-3.26.66-4.31,1.97-1.06,1.31-1.58,3.14-1.58,5.5v9.61h-1.57v-18.2h1.49v4.48Z"/>
      <path class="st1" d="M426.24,638.59v-17.26l.44.44h-4.7v-1.38h4.7l-.44.44v-6.85h1.53v6.85l-.44-.44h5.39v1.38h-5.39l.44-.44v17.26h-1.53Z"/>
      <path class="st1" d="M436.83,611.83h1.57v13.51h-.18c.27-.78.64-1.49,1.11-2.15.47-.66,1.03-1.23,1.67-1.71s1.35-.86,2.11-1.13c.77-.27,1.55-.4,2.35-.4,1.02,0,1.93.16,2.73.47.8.32,1.48.77,2.04,1.37.56.59.99,1.32,1.29,2.17.3.85.46,1.81.46,2.88v11.76h-1.53v-11.69c0-.85-.12-1.61-.35-2.29-.23-.68-.57-1.26-1.02-1.73-.45-.47-.99-.84-1.62-1.09-.63-.26-1.36-.38-2.19-.38-.9,0-1.77.21-2.6.62-.84.41-1.57.96-2.2,1.66-.63.69-1.14,1.5-1.51,2.44-.38.93-.56,1.92-.56,2.97v9.5h-1.57v-26.76Z"/>
      <path class="st1" d="M469.77,620.7c1.13.5,2.11,1.18,2.93,2.04.83.86,1.47,1.87,1.93,3.02.46,1.15.69,2.38.69,3.7s-.23,2.59-.69,3.75c-.46,1.17-1.1,2.18-1.93,3.04s-1.8,1.54-2.93,2.04-2.35.75-3.66.75-2.53-.25-3.66-.75-2.11-1.18-2.93-2.04c-.83-.86-1.47-1.87-1.93-3.04-.46-1.17-.69-2.42-.69-3.75s.23-2.54.69-3.7c.46-1.15,1.1-2.16,1.93-3.02.83-.86,1.8-1.54,2.93-2.04,1.13-.5,2.35-.75,3.66-.75s2.53.25,3.66.75ZM463.05,622.08c-.92.43-1.72,1.01-2.4,1.75-.68.74-1.2,1.6-1.57,2.57-.36.97-.55,2-.55,3.09s.18,2.12.55,3.09c.36.97.89,1.83,1.57,2.57.68.74,1.48,1.32,2.4,1.75.92.43,1.94.64,3.06.64s2.14-.21,3.06-.64c.92-.42,1.72-1.01,2.4-1.75.68-.74,1.2-1.6,1.57-2.57.36-.97.55-2,.55-3.09s-.18-2.12-.55-3.09c-.36-.97-.89-1.83-1.57-2.57s-1.48-1.32-2.4-1.75c-.92-.42-1.94-.64-3.06-.64s-2.14.21-3.06.64Z"/>
      <path class="st1" d="M483.18,638.74c-.68-.19-1.31-.45-1.89-.76-.58-.32-1.1-.67-1.55-1.07-.45-.4-.82-.82-1.11-1.26l1.13-.91c.61.75,1.38,1.42,2.31,2,.93.58,2.04.86,3.33.84.61,0,1.18-.08,1.73-.25.55-.17,1.02-.41,1.42-.71.4-.3.72-.67.96-1.11.24-.44.36-.93.36-1.49s-.13-1.04-.4-1.44c-.27-.4-.62-.75-1.06-1.06-.44-.3-.96-.56-1.57-.78-.61-.22-1.26-.44-1.97-.66-.73-.24-1.43-.5-2.11-.78-.68-.28-1.29-.62-1.82-1.02-.53-.4-.96-.87-1.27-1.4-.32-.53-.47-1.18-.47-1.93s.16-1.43.49-2.04c.33-.61.77-1.13,1.33-1.58s1.21-.79,1.95-1.02c.74-.23,1.51-.35,2.31-.35.73,0,1.39.09,2,.26.61.17,1.15.41,1.64.73.49.32.9.67,1.26,1.06.35.39.66.79.93,1.2l-1.17.87c-.46-.7-1.06-1.33-1.78-1.88s-1.71-.82-2.95-.82c-.56,0-1.1.08-1.64.24-.53.16-1.01.39-1.42.69-.41.3-.74.67-.98,1.11-.24.44-.36.95-.36,1.53,0,.51.12.95.36,1.33s.58.7,1.02.98c.44.28.93.53,1.49.75.56.22,1.17.44,1.82.66.78.27,1.52.55,2.24.84.72.29,1.35.64,1.91,1.06s1,.89,1.33,1.44c.33.55.49,1.21.49,1.98,0,.7-.15,1.36-.45,1.98-.3.62-.73,1.16-1.27,1.62-.55.46-1.19.82-1.93,1.07-.74.25-1.56.38-2.46.38-.78,0-1.51-.1-2.19-.29Z"/>
      <path class="st1" d="M507.45,620.59c1.01.43,1.87,1.01,2.59,1.75.72.74,1.28,1.62,1.69,2.64s.62,2.12.62,3.31c0,.24-.01.49-.04.73-.02.24-.05.44-.07.58h-15.47c.02,1.17.24,2.23.64,3.2.4.97.94,1.81,1.62,2.51.68.7,1.49,1.25,2.42,1.64.93.39,1.95.58,3.04.58,1.31,0,2.49-.25,3.53-.76,1.04-.51,1.94-1.24,2.69-2.18l1.02,1.09c-.92,1.14-1.98,1.98-3.19,2.53s-2.56.82-4.06.82-2.72-.25-3.88-.75c-1.15-.5-2.14-1.18-2.95-2.06-.81-.87-1.44-1.89-1.87-3.06-.44-1.17-.66-2.43-.66-3.79s.23-2.58.69-3.73c.46-1.15,1.1-2.15,1.91-3,.81-.85,1.77-1.51,2.88-1.98,1.1-.47,2.3-.71,3.59-.71,1.17,0,2.25.21,3.26.64ZM501.4,621.93c-.86.35-1.61.83-2.26,1.44s-1.16,1.32-1.57,2.15-.65,1.72-.75,2.69h13.95c-.02-1.04-.21-1.98-.56-2.82-.35-.84-.83-1.55-1.44-2.15-.61-.59-1.31-1.05-2.09-1.37-.79-.32-1.63-.47-2.53-.47-.97,0-1.89.18-2.75.53Z"/>
      <path class="st1" d="M524.72,620.39l5.86,15.91h-.33l6.3-15.95h.58l6.26,15.91h-.29l5.83-15.87h1.67l-7.03,18.5h-.55l-6.37-16.06h.33l-6.37,16.06h-.55l-7.03-18.5h1.68Z"/>
      <path class="st1" d="M565.01,620.59c1.01.43,1.87,1.01,2.59,1.75.72.74,1.28,1.62,1.69,2.64s.62,2.12.62,3.31c0,.24-.01.49-.04.73-.02.24-.05.44-.07.58h-15.47c.02,1.17.24,2.23.64,3.2.4.97.94,1.81,1.62,2.51.68.7,1.49,1.25,2.42,1.64.93.39,1.95.58,3.04.58,1.31,0,2.49-.25,3.53-.76,1.04-.51,1.94-1.24,2.69-2.18l1.02,1.09c-.92,1.14-1.98,1.98-3.19,2.53s-2.56.82-4.06.82-2.72-.25-3.88-.75c-1.15-.5-2.14-1.18-2.95-2.06-.81-.87-1.44-1.89-1.87-3.06-.44-1.17-.66-2.43-.66-3.79s.23-2.58.69-3.73c.46-1.15,1.1-2.15,1.91-3,.81-.85,1.77-1.51,2.88-1.98,1.1-.47,2.3-.71,3.59-.71,1.17,0,2.25.21,3.26.64ZM558.97,621.93c-.86.35-1.61.83-2.26,1.44s-1.16,1.32-1.57,2.15-.65,1.72-.75,2.69h13.95c-.02-1.04-.21-1.98-.56-2.82-.35-.84-.83-1.55-1.44-2.15-.61-.59-1.31-1.05-2.09-1.37-.79-.32-1.63-.47-2.53-.47-.97,0-1.89.18-2.75.53Z"/>
      <path class="st1" d="M584.11,611.83h1.57v26.76h-1.57v-26.76Z"/>
      <path class="st1" d="M594.19,614.25c.27.25.4.59.4,1s-.13.75-.4,1.02c-.27.27-.61.4-1.02.4s-.75-.13-1.02-.4c-.27-.27-.4-.61-.4-1.02s.13-.75.4-1c.27-.25.61-.38,1.02-.38s.75.13,1.02.38ZM592.41,620.39h1.57v18.2h-1.57v-18.2Z"/>
      <path class="st1" d="M599.44,620.39l6.81,15.98h-.36l6.77-15.98h1.71l-8.01,18.5h-.58l-8.05-18.5h1.71Z"/>
      <path class="st1" d="M628.4,620.59c1.01.43,1.87,1.01,2.59,1.75.72.74,1.28,1.62,1.69,2.64s.62,2.12.62,3.31c0,.24-.01.49-.04.73-.02.24-.05.44-.07.58h-15.47c.02,1.17.24,2.23.64,3.2.4.97.94,1.81,1.62,2.51.68.7,1.49,1.25,2.42,1.64.93.39,1.95.58,3.04.58,1.31,0,2.49-.25,3.53-.76,1.04-.51,1.94-1.24,2.69-2.18l1.02,1.09c-.92,1.14-1.98,1.98-3.19,2.53s-2.56.82-4.06.82-2.72-.25-3.88-.75c-1.15-.5-2.14-1.18-2.95-2.06-.81-.87-1.44-1.89-1.87-3.06-.44-1.17-.66-2.43-.66-3.79s.23-2.58.69-3.73c.46-1.15,1.1-2.15,1.91-3,.81-.85,1.77-1.51,2.88-1.98,1.1-.47,2.3-.71,3.59-.71,1.17,0,2.25.21,3.26.64ZM622.36,621.93c-.86.35-1.61.83-2.26,1.44s-1.16,1.32-1.57,2.15-.65,1.72-.75,2.69h13.95c-.02-1.04-.21-1.98-.56-2.82-.35-.84-.83-1.55-1.44-2.15-.61-.59-1.31-1.05-2.09-1.37-.79-.32-1.63-.47-2.53-.47-.97,0-1.89.18-2.75.53Z"/>
      <path class="st1" d="M645.68,620.39l5.86,15.91h-.33l6.3-15.95h.58l6.26,15.91h-.29l5.83-15.87h1.67l-7.03,18.5h-.55l-6.37-16.06h.33l-6.37,16.06h-.55l-7.03-18.5h1.68Z"/>
      <path class="st1" d="M677.35,614.25c.27.25.4.59.4,1s-.13.75-.4,1.02c-.27.27-.61.4-1.02.4s-.75-.13-1.02-.4c-.27-.27-.4-.61-.4-1.02s.13-.75.4-1c.27-.25.61-.38,1.02-.38s.75.13,1.02.38ZM675.57,620.39h1.57v18.2h-1.57v-18.2Z"/>
      <path class="st1" d="M685.62,638.59v-17.26l.44.44h-4.7v-1.38h4.7l-.44.44v-6.85h1.53v6.85l-.44-.44h5.39v1.38h-5.39l.44-.44v17.26h-1.53Z"/>
      <path class="st1" d="M696.21,611.83h1.57v13.51h-.18c.27-.78.64-1.49,1.11-2.15.47-.66,1.03-1.23,1.67-1.71s1.35-.86,2.11-1.13c.77-.27,1.55-.4,2.35-.4,1.02,0,1.93.16,2.73.47.8.32,1.48.77,2.04,1.37.56.59.99,1.32,1.29,2.17.3.85.46,1.81.46,2.88v11.76h-1.53v-11.69c0-.85-.12-1.61-.35-2.29-.23-.68-.57-1.26-1.02-1.73-.45-.47-.99-.84-1.62-1.09-.63-.26-1.36-.38-2.19-.38-.9,0-1.77.21-2.6.62-.84.41-1.57.96-2.2,1.66-.63.69-1.14,1.5-1.51,2.44-.38.93-.56,1.92-.56,2.97v9.5h-1.57v-26.76Z"/>
    </g>
    <g>
      <g>
        <path class="st1" d="M267.02,468.15c-1.86-2.61-3.54-4.47-5.4-5.77,1.3,96.07,0,100.91,10.8,101.85l25.13,2.05-.19,1.3h-60.33v-1.3l12.1-1.86c10.61-1.68,9.31-6.7,10.8-103.33-2.61-1.49-5.77-2.23-10.43-2.79l-12.48-1.3v-1.12h32.21c16.57,27.37,40.78,63.12,68.14,97.56-1.3-88.81-.37-93.09-9.87-94.02l-25.14-2.42.19-1.12h53.81v1.12l-6.89,1.3c-9.87,2.23-10.43,10.61-10.43,94.96,0,6.7,0,11.36.37,16.01l-1.3.19c-16.76-25.51-50.64-73.54-71.12-101.29Z"/>
        <path class="st1" d="M408.89,569.44c-23.65,0-39.29-18.25-39.29-47.11,0-23.09,15.27-42.45,46.36-42.45,23.46,0,38.91,14.15,38.91,38.73,0,29.23-19.36,50.83-45.99,50.83ZM415.22,564.79c22.71,0,33.14-15.08,33.14-42.45s-13.96-40.22-36.68-40.22-36.12,12.47-36.12,36.49c0,28.3,14.52,46.17,39.66,46.17Z"/>
        <path class="st1" d="M477.77,490.31h-9.68v-1.3c10.24-2.61,16.38-5.03,21.97-8.01l1.12.37c-.19,7.82-.56,17.87-.75,27.37l.56.19c3.35-15.27,17.32-29.04,32.96-29.04.19,2.42.37,5.59.37,8.01h-3.35c-13.78,0-29.98,8.94-29.98,29.42,0,44.5.75,46.55,5.03,46.92l19.36,2.05v1.3h-47.29v-1.3l10.43-1.3c6.52-.93,6.7-2.23,6.7-37.24s-.56-37.24-7.45-37.42Z"/>
        <path class="st1" d="M617.22,512.65l-6.89,2.79-64.79-.56c-.19,1.49-.19,2.98-.19,4.47,0,29.04,15.45,44.13,38.17,44.13,17.31,0,27.37-7.63,33.7-27.37l1.12.37c-5.96,25.32-19.36,32.96-38.17,32.96-25.69,0-41.33-18.25-41.33-47.11,0-23.83,15.83-42.45,45.06-42.45,19.92,0,34.26,11.36,33.33,32.77ZM545.73,513.77l58.65-1.49c4.28-.19,5.03-2.98,5.03-6.14,0-14.52-12.1-24.39-29.23-24.39-20.11,0-32.4,13.22-34.44,32.02Z"/>
        <path class="st1" d="M641.05,450.65l-9.31-.75v-1.12c15.45-2.23,18.8-3.72,21.78-7.82l.93.19v62.37c0,59.02,0,59.58,5.21,60.7l12.29,2.05v1.3h-40.4v-1.3l8.19-.74c8.75-.93,9.12-1.3,9.12-37.05,0-76.34-.56-77.08-7.82-77.83Z"/>
        <path class="st1" d="M688.9,450.65l-9.31-.75v-1.12c15.45-2.23,18.8-3.72,21.78-7.82l.93.19v62.37c0,59.02,0,59.58,5.21,60.7l12.29,2.05v1.3h-40.4v-1.3l8.19-.74c8.75-.93,9.12-1.3,9.12-37.05,0-76.34-.56-77.08-7.82-77.83Z"/>
        <path class="st1" d="M809.92,512.65l-6.89,2.79-64.79-.56c-.19,1.49-.19,2.98-.19,4.47,0,29.04,15.45,44.13,38.17,44.13,17.31,0,27.37-7.63,33.7-27.37l1.12.37c-5.96,25.32-19.36,32.96-38.17,32.96-25.69,0-41.33-18.25-41.33-47.11,0-23.83,15.83-42.45,45.06-42.45,19.92,0,34.26,11.36,33.33,32.77ZM738.42,513.77l58.65-1.49c4.28-.19,5.03-2.98,5.03-6.14,0-14.52-12.1-24.39-29.23-24.39-20.11,0-32.4,13.22-34.44,32.02Z"/>
      </g>
      <path class="st1" d="M580.85,453.41c7.16,0,14.32,0,21.47-.29v4.58c-7.01-.29-14.17-.43-21.33-.43s-14.32.14-21.62.43v-4.58c7.16.29,14.32.29,21.47.29Z"/>
      <g>
        <path class="st1" d="M836.73,478.25l-2.44-4.05h-2.09v4.05h-.61v-9.51h2.61c1.06,0,1.85.25,2.38.74.53.5.79,1.16.79,1.98,0,.73-.21,1.33-.62,1.81-.41.47-1.01.77-1.79.87l2.49,4.11h-.73ZM832.21,473.68h2.03c.84,0,1.47-.2,1.88-.61.42-.41.62-.94.62-1.61,0-1.45-.84-2.18-2.53-2.18h-2v4.4Z"/>
        <path class="st1" d="M834.33,482.12c-4.76,0-8.63-3.87-8.63-8.63s3.87-8.63,8.63-8.63,8.63,3.87,8.63,8.63-3.87,8.63-8.63,8.63ZM834.33,465.47c-4.42,0-8.02,3.6-8.02,8.02s3.6,8.02,8.02,8.02,8.02-3.6,8.02-8.02-3.6-8.02-8.02-8.02Z"/>
      </g>
    </g>
  </g>
</svg>